<?xml version="1.0" encoding="utf-8"?>
<svg height="64" viewBox="0 0 64 64" width="64"
     xmlns="http://www.w3.org/2000/svg">
    <path d="m46.075 34.127 1.925.688 1.924-.688c5.429-1.939 9.076-7.114 9.076-12.878v-10.312l-.865-.118c-3.476-.474-6.767-1.874-9.515-4.046l-.62-.491-.62.491c-2.748 2.173-6.039 3.572-9.515 4.046l-.865.118v10.312c0 5.764 3.646 10.939 9.075 12.878zm-7.075-21.462c3.255-.579 6.337-1.897 9-3.851 2.663 1.954 5.745 3.272 9 3.851v8.583c0 4.921-3.114 9.34-7.749 10.995l-1.251.448-1.253-.447c-4.634-1.656-7.747-6.074-7.747-10.995zm7 14.749-3.707-3.707 1.414-1.414 2.293 2.293 8.293-8.293 1.414 1.414zm-40 35.586h32c2.757 0 5-2.243 5-5v-20.843c.561.271 1.134.525 1.73.738l3.27 1.167 3.27-1.167c7.016-2.507 11.73-9.196 11.73-16.646v-14.249h-1c-4.892 0-9.491-1.905-12.949-5.363l-1.051-1.052-1.05 1.051c-3.459 3.459-8.058 5.364-12.95 5.364h-1v6h-27c-2.757 0-5 2.243-5 5v9h8v22h-8v9c0 2.757 2.243 5 5 5zm29-54.024c4.882-.235 9.448-2.188 13-5.57 3.551 3.382 8.118 5.335 13 5.57v12.272c0 6.607-4.181 12.54-10.402 14.762l-2.598.928-2.598-.927c-6.221-2.222-10.402-8.155-10.402-14.762zm2 23.454v8.57h-22v-14h18.977c.685 1.98 1.708 3.819 3.023 5.43zm-3.585-7.43h-20.415v18h26v-8.494c.627.554 1.294 1.067 2 1.53v21.964c0 1.654-1.346 3-3 3h-28.026c.635-.838 1.026-1.87 1.026-3v-40c0-1.13-.391-2.162-1.026-3h23.026v6.249c0 1.279.149 2.534.415 3.751zm-30.415 0v-7c0-1.654 1.346-3 3-3s3 1.346 3 3v7zm0 26h6v7c0 1.654-1.346 3-3 3s-3-1.346-3-3zm12-32h-2v-2h2zm2-2h14v2h-14zm-4 4h18v2h-18zm26 24h-12v6h12zm-2 4h-8v-2h8zm2 4h-12v6h12zm-2 4h-8v-2h8zm-16-2v-1c0-.551-.448-1-1-1h-2c-1.654 0-3-1.346-3-3v-3h3v-2h2v2c1.654 0 3 1.346 3 3h-2c0-.551-.448-1-1-1h-3v1c0 .551.448 1 1 1h2c1.654 0 3 1.346 3 3v3h-3v2h-2v-2c-1.654 0-3-1.346-3-3h2c0 .551.448 1 1 1zm-2-24h-2v-2h2zm4 0h-2v-2h2zm4 0h-2v-2h2z"
          fill="#fff"/>
</svg>