<?xml version="1.0" encoding="iso-8859-1"?>
<!-- Generator: Adobe Illustrator 19.0.0, SVG Export Plug-In . SVG Version: 6.00 Build 0)  -->
<svg version="1.1" id="Capa_1" xmlns="http://www.w3.org/2000/svg" xmlns:xlink="http://www.w3.org/1999/xlink" x="0px" y="0px"
	 viewBox="0 0 512 512" style="enable-background:new 0 0 512 512;" xml:space="preserve">
<path style="fill:#B3F0FF;" d="M436.853,168.784c6.007,3.918,13.91-0.69,13.52-7.852c-1.911-35.143-19.277-107.746-130.158-107.746
	c-49.685,0-96.183,20.129-138.145,45.18c-38.665,23.082-76.048,49.674-107.505,82.064c-26.57,27.359-48.631,59.327-61.468,95.421
	C4.389,300.336,0,326.436,0,352.413v0.111l19.215,19.215h461.365L512,352.524v-49.365
	C287.856,303.16,357.075,116.758,436.853,168.784z"/>
<path style="fill:#57D0E6;" d="M512,401.889v49.365c-23.34-10.078-49.803-10.078-73.143,0l0,0c-23.34,10.078-49.803,10.078-73.143,0
	l0,0c-23.34-10.078-49.803-10.078-73.143,0l0,0c-23.34,10.078-49.803,10.078-73.143,0l0,0c-23.34-10.078-49.803-10.078-73.143,0l0,0
	c-23.34,10.078-49.803,10.078-73.143,0l0,0c-23.34-10.078-49.803-10.078-73.143,0v-49.365l19.215-30.15h461.365L512,401.889z"/>
<path style="fill:#85E7FF;" d="M0,401.889c23.34-10.078,49.803-10.078,73.143,0l0,0c23.34,10.078,49.803,10.078,73.143,0l0,0
	c23.34-10.078,49.803-10.078,73.143,0l0,0c23.34,10.078,49.803,10.078,73.143,0l0,0c23.34-10.078,49.803-10.078,73.143,0l0,0
	c23.34,10.078,49.803,10.078,73.143,0l0,0c23.34-10.078,49.803-10.078,73.143,0v-49.365c-23.34-10.078-49.803-10.078-73.143,0l0,0
	c-23.34,10.078-49.803,10.078-73.143,0l0,0c-23.34-10.078-49.803-10.078-73.143,0l0,0c-23.34,10.078-49.803,10.078-73.143,0l0,0
	c-23.34-10.078-49.803-10.078-73.143,0l0,0c-23.34,10.078-49.803,10.078-73.143,0l0,0c-23.34-10.078-49.803-10.078-73.143,0V401.889
	z"/>
<g>
	<path style="fill:#3A484A;" d="M165.212,316.688c-4.268,0-7.726-3.459-7.726-7.726v-16.43c0-4.267,3.458-7.726,7.726-7.726
		s7.726,3.459,7.726,7.726v16.43C172.939,313.229,169.48,316.688,165.212,316.688z"/>
	<path style="fill:#3A484A;" d="M346.787,316.688c-4.268,0-7.726-3.459-7.726-7.726v-16.43c0-4.267,3.458-7.726,7.726-7.726
		s7.726,3.459,7.726,7.726v16.43C354.513,313.229,351.055,316.688,346.787,316.688z"/>
	<path style="fill:#3A484A;" d="M256,325.459c-10.964,0-21.252-4.576-28.225-12.556c-2.809-3.213-2.481-8.094,0.732-10.902
		c3.212-2.808,8.094-2.48,10.901,0.732c4.04,4.621,10.088,7.273,16.591,7.273c6.504,0,12.55-2.651,16.59-7.273
		c2.81-3.213,7.688-3.541,10.902-0.73c3.212,2.808,3.541,7.689,0.731,10.902C277.249,320.883,266.961,325.459,256,325.459z"/>
</g>
<g>
</g>
<g>
</g>
<g>
</g>
<g>
</g>
<g>
</g>
<g>
</g>
<g>
</g>
<g>
</g>
<g>
</g>
<g>
</g>
<g>
</g>
<g>
</g>
<g>
</g>
<g>
</g>
<g>
</g>
</svg>
